<?xml version="1.0" standalone="no"?>
<!DOCTYPE svg PUBLIC "-//W3C//DTD SVG 1.1//EN" "http://www.w3.org/Graphics/SVG/1.1/DTD/svg11.dtd">
<svg xmlns="http://www.w3.org/2000/svg" version="1.1" viewBox="0.00 0.00 535.00 322.00" width="535" height="322">
<path fill="#154a3c" d="   M 473.26 134.72   C 490.00 139.52 509.36 154.50 508.40 173.75   C 507.68 188.23 497.28 201.32 484.22 207.12   C 480.62 208.72 474.56 210.22 466.04 211.63   C 368.41 227.73 270.77 243.74 173.12 259.67   C 137.91 265.41 102.76 271.49 67.51 277.06   C 50.40 279.77 23.20 278.93 23.21 254.82   C 23.21 254.44 23.40 254.25 23.77 254.25   L 32.21 254.25   C 32.90 254.25 33.24 254.59 33.24 255.28   C 33.24 270.39 52.85 269.71 62.60 268.11   C 199.39 245.70 336.19 223.33 473.00 201.02   C 484.89 199.09 492.83 192.83 496.81 182.24   C 505.15 160.09 483.84 147.72 466.49 142.70   C 335.18 104.68 203.86 66.71 72.53 28.79   C 60.41 25.29 38.84 22.34 36.82 40.08   C 36.76 40.59 36.47 40.84 35.95 40.81   L 27.76 40.46   C 27.39 40.44 27.13 40.09 27.22 39.74   C 31.64 21.04 43.59 15.29 61.81 17.34   C 64.62 17.65 69.41 18.78 76.16 20.72   C 208.51 58.75 340.88 96.75 473.26 134.72   Z"/>
<path fill="#1f9644" d="   M 72.72 119.32   C 75.92 122.52 81.40 120.68 82.96 125.90   C 86.48 137.74 45.48 134.13 39.20 133.61   C 35.76 133.33 33.53 131.84 32.50 129.14   C 30.02 122.56 43.00 123.11 42.42 114.01   C 42.11 109.18 42.11 104.35 42.42 99.53   C 42.83 93.10 37.45 93.39 32.36 93.58   C 31.95 93.59 31.75 93.40 31.75 92.99   L 31.75 85.01   C 31.75 84.75 31.96 84.54 32.23 84.53   C 44.46 84.40 35.19 70.02 34.69 64.55   C 33.76 54.28 45.22 47.68 54.21 46.00   C 61.38 44.66 68.92 45.48 76.81 48.46   C 83.04 50.81 88.60 55.87 86.63 62.98   C 85.22 68.11 78.64 70.40 73.84 68.10   C 68.76 65.67 65.76 58.02 60.34 57.02   C 54.74 55.99 49.92 61.22 52.28 66.60   C 52.77 67.71 53.90 69.03 55.68 70.54   C 60.23 74.43 64.80 78.30 69.37 82.15   C 69.62 82.36 69.92 82.47 70.25 82.48   L 82.06 82.76   C 82.43 82.77 82.60 82.96 82.57 83.32   L 81.93 91.88   C 81.91 92.23 81.72 92.44 81.37 92.51   C 78.23 93.10 75.11 93.60 72.01 94.02   C 70.03 94.28 70.06 95.47 69.70 96.99   C 68.25 103.09 68.06 114.67 72.72 119.32   Z"/>
<path fill="#154a3c" d="   M 449.6400 77.5932   C 449.66 88.38 440.23 97.15 428.5741 97.1700   C 416.92 97.19 407.46 88.46 407.4400 77.6668   C 407.42 66.88 416.85 58.11 428.5059 58.0900   C 440.16 58.07 449.62 66.80 449.6400 77.5932   Z   M 447.5300 77.6131   C 447.55 67.96 439.06 60.12 428.5705 60.1000   C 418.08 60.08 409.57 67.89 409.5500 77.5469   C 409.53 87.20 418.02 95.04 428.5095 95.0600   C 439.00 95.08 447.51 87.27 447.5300 77.6131   Z"/>
<path fill="#154a3c" d="   M 430.71 78.17   C 433.10 80.76 435.47 83.36 437.83 85.98   C 438.04 86.21 438.29 86.40 438.58 86.53   L 440.30 87.34   C 440.75 87.55 440.60 88.23 440.10 88.23   L 435.01 88.23   C 434.72 88.23 434.44 88.10 434.26 87.87   L 426.36 78.21   C 425.65 77.35 424.25 77.84 424.25 78.96   L 424.25 85.56   C 424.25 86.03 424.54 86.44 424.98 86.59   L 427.31 87.42   C 427.51 87.49 427.62 87.69 427.58 87.90   C 427.55 88.10 427.37 88.25 427.16 88.25   L 417.83 88.25   C 417.35 88.25 417.22 87.60 417.66 87.40   L 419.61 86.53   C 420.04 86.34 420.25 86.01 420.25 85.54   L 420.25 68.76   C 420.25 68.46 420.16 68.17 419.99 67.92   C 419.45 67.11 418.66 66.72 417.62 66.75   C 417.41 66.76 417.23 66.58 417.24 66.37   C 417.25 66.09 417.36 65.94 417.57 65.92   C 420.91 65.68 431.69 64.52 435.25 68.31   C 437.42 70.61 436.86 74.07 434.44 75.90   C 433.45 76.64 432.14 76.75 430.89 77.29   C 430.42 77.50 430.36 77.79 430.71 78.17   Z   M 424.23 68.12   L 424.25 75.46   C 424.25 75.94 424.64 76.34 425.13 76.34   L 426.54 76.33   C 429.81 76.33 432.46 74.33 432.46 71.87   L 432.46 71.67   C 432.46 69.22 429.80 67.23 426.52 67.23   L 425.11 67.24   C 424.63 67.24 424.23 67.63 424.23 68.12   Z"/>
<path fill="#1f9644" d="   M 120.06 125.19   C 125.12 126.04 130.04 124.78 134.83 121.40   C 136.89 119.95 139.67 120.02 139.71 123.10   C 139.78 127.66 137.56 130.99 133.05 133.08   C 114.89 141.52 92.11 138.61 87.70 115.53   C 81.16 81.32 134.68 68.53 142.11 102.60   C 142.67 105.16 142.35 107.55 141.14 109.76   C 140.97 110.07 140.70 110.22 140.35 110.23   C 132.12 110.32 123.92 110.24 115.77 110.00   C 112.67 109.91 107.65 111.57 107.59 115.34   C 107.51 120.52 115.63 124.44 120.06 125.19   Z   M 110.36 103.29   L 120.48 103.17   C 122.04 103.15 123.30 101.87 123.28 100.30   L 123.26 98.66   C 123.21 94.66 119.74 91.46 115.51 91.51   L 115.05 91.51   C 110.82 91.56 107.43 94.85 107.48 98.86   L 107.50 100.50   C 107.52 102.06 108.80 103.31 110.36 103.29   Z"/>
<path fill="#1f9644" d="   M 155.49 100.51   C 155.49 96.72 148.44 95.87 148.96 92.31   C 150.02 85.03 171.53 83.20 176.50 83.16   C 176.87 83.16 177.11 83.33 177.23 83.67   C 178.14 86.19 177.18 89.66 179.22 91.64   C 180.33 92.72 182.11 92.66 183.15 91.51   C 185.42 89.00 187.99 85.31 190.60 83.84   C 203.73 76.40 212.82 101.61 197.62 105.56   C 191.63 107.12 189.77 105.87 185.49 101.99   C 174.97 92.45 177.44 119.00 177.62 122.28   C 177.63 122.60 177.79 122.89 178.05 123.09   C 180.46 124.91 182.80 126.78 185.07 128.71   C 190.64 133.43 181.54 137.07 177.87 137.19   C 170.01 137.45 162.16 137.25 154.33 136.60   C 149.71 136.22 147.60 133.13 149.59 128.76   C 149.73 128.47 149.95 128.23 150.24 128.07   C 152.17 127.03 153.82 125.67 155.20 123.99   C 155.39 123.75 155.50 123.45 155.50 123.13   C 155.49 115.56 155.49 108.02 155.49 100.51   Z"/>
<path fill="#154a3c" d="   M 354.53 153.65   C 355.01 153.20 355.03 152.44 354.56 151.98   C 347.38 144.95 347.59 132.93 356.73 127.25   C 363.28 123.17 370.55 122.58 378.54 125.47   C 388.08 128.92 388.57 139.73 378.22 142.04   C 372.17 143.39 370.41 135.89 365.49 135.62   C 362.22 135.45 356.99 138.37 360.13 142.37   C 362.23 145.05 367.86 146.49 371.78 147.73   C 377.18 149.42 377.45 154.89 383.72 155.02   C 384.11 155.03 384.43 155.32 384.46 155.71   C 384.75 158.85 384.28 161.86 383.05 164.73   C 382.97 164.92 382.79 165.05 382.59 165.07   L 378.59 165.56   C 378.18 165.61 377.92 165.83 377.81 166.22   C 374.00 179.08 373.08 192.58 372.58 206.25   C 372.41 210.73 370.86 211.17 367.57 213.09   C 361.84 216.44 349.52 218.49 345.40 211.35   C 344.62 210.00 345.27 208.28 346.74 207.78   C 348.27 207.26 349.31 205.96 349.75 204.29   C 352.60 193.40 354.65 182.37 355.88 171.18   C 356.00 170.11 356.04 169.03 355.99 167.94   C 355.98 167.59 355.85 167.29 355.60 167.04   C 353.31 164.73 350.55 164.14 347.34 165.25   C 346.39 165.58 345.43 164.79 345.56 163.80   L 346.48 156.67   C 346.53 156.21 346.78 155.91 347.22 155.76   C 348.62 155.30 350.02 155.35 351.42 155.92   C 351.70 156.04 352.02 155.98 352.25 155.77   L 354.53 153.65   Z"/>
<path fill="#154a3c" d="   M 265.49 179.96   C 264.44 188.87 255.05 195.96 246.95 198.25   C 243.37 199.26 238.54 199.93 232.46 200.26   C 215.18 201.19 195.66 197.50 198.42 174.36   C 198.53 173.44 199.22 172.71 200.13 172.54   C 201.30 172.33 202.45 172.71 203.58 173.68   C 207.32 176.85 210.90 182.86 215.44 185.77   C 221.51 189.65 231.21 192.16 236.59 186.06   C 240.14 182.03 236.92 178.89 233.04 177.22   C 222.91 172.87 211.43 169.75 204.08 161.19   C 198.18 154.31 200.23 141.91 205.20 135.12   C 213.65 123.56 229.17 123.71 241.59 126.76   C 245.80 127.80 249.55 127.79 253.49 127.25   C 262.09 126.06 268.07 143.08 260.47 148.35   C 260.21 148.53 259.89 148.60 259.58 148.54   C 249.94 146.59 247.48 135.83 235.40 136.00   C 230.80 136.07 227.16 138.33 227.29 143.27   C 227.59 154.79 269.26 147.99 265.49 179.96   Z"/>
<path fill="#154a3c" d="   M 396.08 152.38   C 396.11 152.03 396.31 151.71 396.61 151.53   C 404.86 146.69 413.23 141.84 421.73 136.97   C 424.33 135.48 427.34 135.99 430.20 136.01   C 430.57 136.01 430.76 136.20 430.76 136.58   C 430.73 139.45 429.68 145.43 431.73 147.53   C 433.92 149.77 443.35 149.02 446.40 148.73   C 446.72 148.70 447.00 148.95 447.00 149.27   L 447.00 157.25   C 447.00 157.80 446.55 158.25 446.00 158.25   L 433.29 158.25   C 431.82 158.25 430.65 159.48 430.73 160.95   C 431.05 166.92 431.20 172.91 430.69 178.95   C 430.40 182.40 431.91 188.22 435.97 188.91   C 438.36 189.33 442.33 187.65 444.68 186.74   C 445.91 186.26 447.26 187.05 447.44 188.35   C 447.75 190.51 447.37 192.25 445.88 193.96   C 439.32 201.47 428.02 203.68 418.75 202.01   C 410.18 200.47 405.87 190.47 405.85 182.74   C 405.84 175.00 405.90 167.25 406.05 159.50   C 406.06 159.20 405.94 158.91 405.73 158.71   C 402.67 155.61 399.68 157.57 396.43 157.82   C 395.98 157.85 395.61 157.48 395.65 157.04   L 396.08 152.38   Z"/>
<path fill="#154a3c" d="   M 273.62 174.07   C 272.07 153.72 291.36 143.11 309.23 144.23   C 321.50 145.00 329.96 150.72 334.59 161.41   C 351.07 199.47 276.80 215.46 273.62 174.07   Z   M 308.50 158.98   C 304.49 151.21 296.73 155.58 296.42 163.00   C 296.11 170.22 297.89 179.06 302.55 184.84   C 305.34 188.30 310.18 189.61 312.73 185.21   C 316.25 179.14 311.52 164.86 308.50 158.98   Z"/>
</svg>