<?xml version="1.0" standalone="no"?>
<!DOCTYPE svg PUBLIC "-//W3C//DTD SVG 1.1//EN" "http://www.w3.org/Graphics/SVG/1.1/DTD/svg11.dtd">
<svg xmlns="http://www.w3.org/2000/svg" version="1.1" viewBox="0.00 0.00 590.00 332.00" width="590" height="332">
<path fill="#f7f7f7" d="   M 38.33 0.00   L 42.81 0.00   C 47.44 0.42 51.71 0.85 56.29 2.23   C 216.84 50.53 377.42 98.75 538.03 146.90   C 542.75 148.32 546.49 149.52 549.24 150.51   C 569.47 157.80 591.09 176.48 589.17 199.67   C 587.60 218.53 575.51 234.79 558.43 242.24   C 554.90 243.78 549.63 245.16 542.61 246.37   C 429.22 266.02 315.80 285.50 202.35 304.82   C 151.96 313.40 101.64 322.42 51.25 330.97   C 49.73 331.23 46.63 331.57 41.94 332.00   L 37.98 332.00   C 19.09 331.63 -0.21 324.32 0.56 301.84   C 0.57 301.57 0.70 301.44 0.96 301.44   L 11.09 301.22   C 11.98 301.20 12.70 301.94 12.67 302.83   C 12.01 320.21 34.54 321.38 46.36 319.35   C 210.11 291.24 373.87 263.22 537.64 235.29   C 546.70 233.74 553.02 232.15 556.61 230.50   C 568.26 225.15 575.14 215.56 577.26 201.74   C 580.26 182.22 560.22 166.38 543.48 161.30   C 382.47 112.51 221.44 63.75 60.40 15.02   C 46.20 10.73 17.75 6.95 17.24 29.82   C 17.23 30.07 17.03 30.27 16.78 30.26   L 5.97 29.92   C 5.72 29.91 5.53 29.69 5.56 29.44   C 8.09 10.12 19.60 1.34 38.33 0.00   Z"/>
<path fill="#f7f7f7" d="   M 70.56 134.69   C 77.16 140.33 70.94 146.98 64.50 147.74   C 49.17 149.55 34.25 149.72 19.76 148.24   C 14.71 147.72 8.94 143.13 12.46 137.65   C 14.49 134.49 18.87 133.74 21.47 130.93   C 23.28 128.98 24.13 127.00 24.02 125.00   C 23.66 118.29 23.62 111.59 23.89 104.88   C 24.21 96.98 17.86 96.81 11.53 97.47   C 11.18 97.51 11.00 97.35 11.00 97.00   L 11.00 86.76   C 11.00 86.35 11.31 86.01 11.71 85.96   C 23.45 84.64 18.54 74.06 16.24 67.47   C 12.76 57.49 14.80 48.94 23.97 42.92   C 34.71 35.87 46.66 34.23 59.83 37.99   C 68.93 40.59 80.60 46.55 77.64 58.09   C 76.45 62.73 72.60 65.86 67.74 66.03   C 59.70 66.31 56.42 60.10 51.70 54.94   C 41.32 43.60 29.43 58.18 37.82 66.17   C 40.37 68.60 46.77 74.21 57.02 83.02   C 57.27 83.24 57.57 83.35 57.90 83.35   L 71.97 83.53   C 72.43 83.54 72.64 83.77 72.60 84.23   L 71.67 95.45   C 71.64 95.77 71.47 95.96 71.16 96.01   C 67.67 96.66 64.18 97.26 60.69 97.79   C 57.41 98.29 57.32 99.69 56.76 102.51   C 55.14 110.57 54.97 127.66 62.84 131.67   C 65.52 133.03 68.22 132.69 70.56 134.69   Z"/>
<path fill="#f7f7f7" d="   M 517.8994 77.2388   C 517.80 90.94 506.26 101.96 492.1169 101.8594   C 477.97 101.76 466.59 90.58 466.6806 76.8812   C 466.78 63.18 478.32 52.16 492.4631 52.2606   C 506.61 52.36 517.99 63.54 517.8994 77.2388   Z   M 515.2987 76.7690   C 515.17 64.51 504.77 54.69 492.0576 54.8212   C 479.35 54.95 469.15 65.00 469.2813 77.2510   C 469.41 89.51 479.81 99.33 492.5224 99.1988   C 505.23 99.07 515.43 89.02 515.2987 76.7690   Z"/>
<path fill="#f7f7f7" d="   M 487.28 78.29   C 487.06 81.43 485.03 89.07 490.40 89.20   C 490.74 89.21 491.01 89.49 491.01 89.83   C 491.00 90.17 490.72 90.44 490.38 90.44   L 479.27 90.34   C 478.99 90.34 478.76 90.11 478.76 89.83   C 478.75 89.55 478.97 89.32 479.25 89.31   C 481.05 89.23 481.97 88.21 482.02 86.25   C 482.16 79.90 482.24 73.55 482.25 67.20   C 482.26 64.66 481.40 63.26 478.87 62.89   C 478.57 62.84 478.46 62.67 478.55 62.38   C 478.58 62.27 478.62 62.19 478.69 62.12   C 478.74 62.06 478.84 62.03 478.97 62.03   C 484.69 61.96 499.26 60.09 501.72 67.29   C 503.56 72.67 499.65 75.38 495.03 76.73   C 494.72 76.82 494.60 77.20 494.81 77.44   L 503.88 88.05   C 504.12 88.33 504.41 88.54 504.76 88.68   L 505.98 89.17   C 506.56 89.40 506.41 90.26 505.79 90.29   L 500.35 90.57   C 499.98 90.59 499.69 90.46 499.46 90.17   L 489.37 77.64   C 488.70 76.81 487.35 77.23 487.28 78.29   Z   M 487.02 64.89   L 487.00 74.43   C 487.00 74.96 487.43 75.39 487.96 75.39   L 490.19 75.40   C 493.95 75.40 497.00 72.96 497.01 69.95   L 497.01 69.41   C 497.02 66.39 493.97 63.94 490.21 63.94   L 487.98 63.93   C 487.45 63.93 487.02 64.36 487.02 64.89   Z"/>
<path fill="#f7f7f7" d="   M 139.68 131.30   C 141.77 132.77 142.50 134.87 141.85 137.58   C 138.98 149.67 121.13 152.77 111.52 153.02   C 86.40 153.69 73.96 130.48 79.70 108.20   C 84.51 89.56 105.43 80.14 122.91 84.54   C 135.30 87.66 145.72 99.70 144.95 113.76   C 144.86 115.32 144.38 116.73 143.49 117.98   C 143.30 118.25 143.04 118.39 142.71 118.38   C 132.50 118.28 122.28 118.25 112.07 118.30   C 106.46 118.33 100.36 122.55 104.12 128.64   C 105.83 131.40 108.36 133.62 111.71 135.30   C 121.47 140.19 129.69 136.95 138.03 131.29   C 138.53 130.95 139.19 130.96 139.68 131.30   Z   M 106.42 109.71   L 118.54 109.43   C 120.49 109.39 122.04 107.77 122.00 105.81   L 121.95 103.70   C 121.83 98.64 117.56 94.63 112.40 94.75   L 111.88 94.76   C 106.72 94.87 102.64 99.07 102.75 104.14   L 102.80 106.25   C 102.84 108.20 104.47 109.75 106.42 109.71   Z"/>
<path fill="#f7f7f7" d="   M 191.31 95.69   C 194.12 96.91 199.18 89.11 200.70 87.19   C 205.71 80.88 215.54 82.99 219.22 89.50   C 224.14 98.23 222.47 108.48 212.50 112.46   C 207.53 114.45 203.55 113.63 199.49 109.96   C 197.38 108.06 193.88 103.23 190.68 106.29   C 186.76 110.03 187.66 121.37 188.01 127.86   C 188.13 130.02 186.82 133.22 189.19 135.16   C 191.82 137.33 194.44 139.51 197.05 141.72   C 202.81 146.60 194.83 152.33 190.31 152.61   C 180.95 153.17 170.01 152.90 157.50 151.81   C 156.09 151.69 154.40 150.27 153.78 148.85   C 149.73 139.44 161.00 140.88 160.99 133.04   C 160.99 124.75 160.60 116.16 161.18 107.92   C 161.68 100.86 154.91 102.07 153.51 97.46   C 150.31 86.94 180.48 84.15 186.02 84.09   C 187.15 84.08 188.05 85.02 187.99 86.15   C 187.79 89.41 187.81 94.16 191.31 95.69   Z"/>
<path fill="#f7f7f7" d="   M 396.70 159.84   C 394.93 148.38 401.96 139.92 412.30 136.58   C 419.28 134.33 427.33 135.70 433.99 138.74   C 444.09 143.34 441.93 156.87 431.20 158.87   C 422.65 160.47 417.77 144.25 409.62 153.16   C 402.35 161.11 422.07 165.04 425.56 167.02   C 431.33 170.29 430.26 174.54 438.43 175.56   C 438.79 175.61 439.06 175.91 439.06 176.28   C 439.06 178.77 438.65 181.90 437.84 185.66   C 436.70 190.93 431.46 185.93 430.24 191.00   C 425.97 208.60 425.09 225.99 424.12 243.97   C 424.11 244.31 423.98 244.63 423.77 244.90   C 417.52 252.78 403.02 255.26 394.05 250.23   C 391.69 248.91 390.82 246.71 391.45 243.64   C 391.50 243.35 391.66 243.12 391.91 242.97   C 394.53 241.31 395.95 241.03 396.76 237.75   C 400.56 222.41 403.15 207.39 404.53 192.68   C 404.56 192.34 404.49 192.03 404.30 191.74   C 401.49 187.36 398.52 187.77 393.85 188.10   C 392.19 188.22 391.46 187.45 391.67 185.80   L 392.72 177.52   C 392.86 176.47 393.83 175.75 394.87 175.93   C 396.93 176.27 399.50 176.71 401.19 175.27   C 403.26 173.51 402.66 171.60 400.98 169.68   C 398.75 167.13 397.32 163.85 396.70 159.84   Z"/>
<path fill="#f7f7f7" d="   M 230.12 211.44   C 238.20 219.18 253.57 224.32 260.95 212.47   C 263.41 208.51 257.23 204.15 254.26 202.95   C 234.05 194.76 207.07 186.16 217.89 156.67   C 221.13 147.85 227.23 141.99 236.19 139.09   C 247.40 135.48 258.05 137.26 269.30 140.46   C 274.77 142.02 281.81 137.42 286.17 142.05   C 290.32 146.46 292.52 151.64 292.77 157.57   C 292.92 161.12 291.29 166.80 286.98 167.05   C 283.37 167.26 277.16 160.92 274.34 158.17   C 269.31 153.25 260.16 149.03 253.37 152.00   C 248.13 154.29 245.71 161.92 251.35 165.47   C 264.29 173.61 279.42 172.41 288.82 183.90   C 297.08 194.00 297.06 211.17 287.63 220.62   C 281.06 227.19 273.12 230.92 263.82 231.79   C 258.14 232.33 251.90 233.17 246.62 232.93   C 239.63 232.60 232.81 231.22 226.18 228.78   C 215.05 224.68 211.17 209.31 213.21 199.31   C 213.51 197.82 214.60 197.21 216.48 197.49   C 220.75 198.12 226.89 208.35 230.12 211.44   Z"/>
<path fill="#f7f7f7" d="   M 498.77 179.27   C 496.72 179.27 494.85 181.21 494.94 183.25   C 495.41 193.37 495.50 199.95 495.23 203.00   C 494.71 208.75 494.84 216.37 501.11 218.23   C 504.22 219.15 509.66 216.43 512.76 215.52   C 513.80 215.22 514.87 215.90 515.03 216.97   C 515.62 220.83 515.10 223.13 512.32 226.04   C 505.20 233.47 496.69 235.42 486.73 235.62   C 470.75 235.94 464.02 221.88 464.49 207.68   C 464.76 199.46 464.95 191.23 465.04 183.00   C 465.10 177.33 459.08 176.76 455.16 178.92   C 454.01 179.55 452.59 178.79 452.49 177.49   C 452.32 175.33 452.61 173.31 453.38 171.42   C 453.52 171.09 453.75 170.81 454.06 170.62   L 485.36 151.52   C 485.65 151.34 485.97 151.25 486.31 151.25   L 494.48 151.25   C 494.84 151.25 495.13 151.56 495.10 151.92   C 494.74 156.43 492.82 166.26 499.24 167.42   C 502.33 167.98 507.24 167.94 513.96 167.30   C 514.32 167.26 514.50 167.42 514.50 167.78   L 514.50 178.74   C 514.50 179.07 514.33 179.24 514.00 179.24   C 508.91 179.25 503.84 179.26 498.77 179.27   Z"/>
<path fill="#f7f7f7" d="   M 305.52 187.02   C 310.03 170.16 328.54 161.51 344.51 161.23   C 377.26 160.65 396.12 204.08 366.25 222.77   C 354.38 230.20 341.63 232.26 328.00 228.97   C 308.81 224.33 300.69 205.12 305.52 187.02   Z   M 341.97 175.73   C 337.68 174.11 333.07 177.77 332.47 182.22   C 330.93 193.73 333.16 204.01 339.16 213.07   C 342.09 217.48 345.50 218.49 349.40 216.10   C 357.82 210.94 350.29 178.88 341.97 175.73   Z"/>
</svg>